<?xml version="1.0" encoding="UTF-8"?><svg id="Layer_1" xmlns="http://www.w3.org/2000/svg" viewBox="0 0 841.89 595.28"><defs><style>.cls-1{fill:#fff;}.cls-2{fill:#161616;}</style></defs><g><path class="cls-2" d="m168.14,447.02H36.93v-181.9h46.91v146.72h84.29v35.18Z"/><path class="cls-2" d="m378.16,447.02h-48.45l-12.67-36.77h-67.32l-12.67,36.77h-47.27l67.19-181.9h54l67.19,181.9Zm-72.39-70.12l-22.38-65.17-22.38,65.17h44.76Z"/><path class="cls-2" d="m567.39,447.02h-46.91v-80.14h-69.27v80.14h-46.91v-181.9h46.91v66.58h69.27v-66.58h46.91v181.9Z"/><path class="cls-2" d="m804.52,447.02h-46.67v-121.8l-33.72,79.04h-32.37l-33.72-79.04v121.8h-44.22v-181.9h54.49l40.93,91.26,40.81-91.26h54.49v181.9Z"/></g><g><path class="cls-1" d="m36.93,223.75v-75.12h28.34c4.99,0,8.8.24,11.43.72,3.69.61,6.78,1.78,9.28,3.51,2.49,1.73,4.5,4.14,6.02,7.25,1.52,3.11,2.28,6.53,2.28,10.25,0,6.39-2.03,11.8-6.1,16.22-4.07,4.42-11.41,6.64-22.03,6.64h-19.27v30.54h-9.94Zm9.94-39.4h19.42c6.42,0,10.98-1.2,13.68-3.59,2.7-2.39,4.05-5.76,4.05-10.09,0-3.14-.8-5.83-2.38-8.07-1.59-2.24-3.68-3.71-6.28-4.43-1.67-.44-4.77-.67-9.28-.67h-19.22v26.85Z"/><path class="cls-1" d="m170.2,223.75v-75.12h9.94v30.85h39.05v-30.85h9.94v75.12h-9.94v-35.41h-39.05v35.41h-9.94Z"/><path class="cls-1" d="m310.33,223.75v-75.12h9.94v75.12h-9.94Z"/><path class="cls-1" d="m400.35,223.75v-75.12h9.94v66.26h37v8.86h-46.94Z"/><path class="cls-1" d="m523.79,223.75v-75.12h9.94v75.12h-9.94Z"/><path class="cls-1" d="m614.22,223.75v-75.12h28.34c4.99,0,8.8.24,11.43.72,3.69.61,6.78,1.78,9.28,3.51,2.49,1.73,4.5,4.14,6.02,7.25,1.52,3.11,2.28,6.53,2.28,10.25,0,6.39-2.03,11.8-6.1,16.22-4.07,4.42-11.41,6.64-22.03,6.64h-19.27v30.54h-9.94Zm9.94-39.4h19.42c6.42,0,10.98-1.2,13.68-3.59,2.7-2.39,4.05-5.76,4.05-10.09,0-3.14-.79-5.83-2.38-8.07-1.59-2.24-3.68-3.71-6.28-4.43-1.67-.44-4.77-.67-9.28-.67h-19.21v26.85Z"/><path class="cls-1" d="m747.18,223.75v-75.12h28.34c4.99,0,8.8.24,11.43.72,3.69.61,6.78,1.78,9.28,3.51,2.49,1.73,4.5,4.14,6.02,7.25,1.52,3.11,2.28,6.53,2.28,10.25,0,6.39-2.03,11.8-6.1,16.22-4.07,4.42-11.41,6.64-22.03,6.64h-19.27v30.54h-9.94Zm9.94-39.4h19.42c6.42,0,10.98-1.2,13.68-3.59,2.7-2.39,4.05-5.76,4.05-10.09,0-3.14-.79-5.83-2.38-8.07-1.59-2.24-3.68-3.71-6.28-4.43-1.67-.44-4.77-.67-9.28-.67h-19.21v26.85Z"/></g></svg>